<svg xmlns="http://www.w3.org/2000/svg" width="40" height="40" xmlns:v="https://vecta.io/nano"><defs><clipPath id="A"><path transform="translate(1123 2796)" fill="#fff" stroke="#707070" stroke-width="1" d="M0 0h40v40H0z"/></clipPath><linearGradient id="B" x1=".5" x2=".5" y2="1"><stop offset="0" stop-color="#71c91a"/><stop offset="1" stop-color="#65b319"/></linearGradient><linearGradient id="C" x1=".5" x2=".5" y2="1"><stop offset="0" stop-color="#485a83"/><stop offset="1" stop-color="#354873"/></linearGradient><linearGradient id="D" x1=".5" x2=".5" y2="1"><stop offset="0" stop-color="#ee193a"/><stop offset="1" stop-color="#d31734"/></linearGradient></defs><g transform="translate(-1123 -2796)" clip-path="url(#A)"><g transform="translate(1123 2796)"><path d="M40 21.75q0 .589-.037 1.172c-.59 9.156-7.885 16.451-17.041 17.041q-.582.036-1.172.037A18.26 18.26 0 0 1 4.336 27.224a1.17 1.17 0 0 1 1.118-1.523h6.93c.428 0 .822.234 1.028.609a9.5 9.5 0 0 0 8.337 4.942 9.37 9.37 0 0 0 1.172-.073 9.52 9.52 0 0 0 8.257-8.257 9.37 9.37 0 0 0 .073-1.172c0-3.474-1.895-6.67-4.942-8.338-.375-.206-.609-.6-.609-1.028v-6.93a1.17 1.17 0 0 1 1.523-1.118C34.827 6.728 40 13.778 40 21.75z" fill="#f9a72c"/><path d="M21.75,0A21.751,21.751,0,0,0,0,21.75a1.172,1.172,0,0,0,1.172,1.172H21.75a1.172,1.172,0,0,0,1.172-1.172V1.172A1.172,1.172,0,0,0,21.75,0Z" fill="url(#B)"/><path d="M22.922 31.18v8.784q-.582.036-1.172.037A18.26 18.26 0 0 1 4.336 27.225a1.17 1.17 0 0 1 1.118-1.523h6.93c.428 0 .822.234 1.028.609a9.5 9.5 0 0 0 8.338 4.942 9.37 9.37 0 0 0 1.172-.073z" fill="url(#C)"/><path d="M26.311 13.413c3.047 1.668 4.942 4.864 4.942 8.338a9.37 9.37 0 0 1-.073 1.172h8.784q.036-.582.037-1.172A18.26 18.26 0 0 0 27.225 4.336a1.17 1.17 0 0 0-1.523 1.118v6.93c0 .428.233.823.609 1.029z" fill="url(#D)"/></g></g></svg>