<svg xmlns="http://www.w3.org/2000/svg" width="40" height="40" xmlns:v="https://vecta.io/nano"><defs><clipPath id="A"><path transform="translate(1123 2796)" fill="#fff" stroke="#707070" stroke-width="1" d="M0 0h40v40H0z"/></clipPath><linearGradient id="B" x1=".5" x2=".5" y2="1"><stop offset="0" stop-color="#ee193a"/><stop offset="1" stop-color="#d31734"/></linearGradient><linearGradient id="C" x1=".5" x2=".5" y2="1"><stop offset="0" stop-color="#f9a72c"/><stop offset="1" stop-color="#fd8720"/></linearGradient></defs><g transform="translate(-1123 -2796)" clip-path="url(#A)"><path d="M1163 2815.999v14.14a3.52 3.52 0 0 1-3.516 3.516h-4.765v1.172c0 .407-.211.785-.557.999s-.779.232-1.143.049l-4.44-2.22h-7.923a3.52 3.52 0 0 1-3.512-3.516v-13.274l8.237.025a3.12 3.12 0 0 0 3.125-3.131v-1.277h10.984a3.52 3.52 0 0 1 3.51 3.517z" fill="url(#B)"/><path d="M1148.864 2799.508a3.52 3.52 0 0 0-3.515-3.508h-18.833a3.52 3.52 0 0 0-3.516 3.516v14.218a3.52 3.52 0 0 0 3.516 3.516h2.421v2.344c.001.443.252.848.649 1.047s.871.156 1.226-.11l4.373-3.28 10.192.031c.934 0 1.829-.371 2.489-1.032s1.029-1.557 1.026-2.491z" fill="url(#C)"/><g fill="#f7f9fe"><path d="M1137.655 2801.193c-1.208-.639-2.671-.557-3.8.214-.546.35-.705 1.076-.355 1.622s1.076.705 1.622.355c.406-.307.951-.358 1.407-.132a1.17 1.17 0 0 1-.395 2.19c-.768.113-1.337.77-1.338 1.546v.731a1.17 1.17 0 1 0 2.344 0v-.126c1.308-.462 2.222-1.65 2.333-3.033s-.601-2.702-1.818-3.367z"/><circle cx="1135.891" cy="2811.312" r="1.172"/></g><g fill="#fff"><path d="M1143 2821.859h14.063a1.172 1.172 0 1 0 0-2.344H1143a1.172 1.172 0 1 0 0 2.344zm14.063 2.343H1143a1.172 1.172 0 1 0 0 2.344h14.063a1.172 1.172 0 1 0 0-2.344z"/></g></g></svg>