<svg xmlns="http://www.w3.org/2000/svg" width="70" height="70" xmlns:v="https://vecta.io/nano"><defs><clipPath id="A"><path transform="translate(1123 2796)" fill="#fff" stroke="#707070" stroke-width="1" d="M0 0h70v70H0z"/></clipPath><linearGradient id="B" x1=".5" x2=".5" y2="1"><stop offset="0" stop-color="#485a83"/><stop offset="1" stop-color="#354873"/></linearGradient><linearGradient id="C" x1=".5" x2=".5" y2="1"><stop offset="0" stop-color="#ee193a"/><stop offset="1" stop-color="#d31734"/></linearGradient></defs><g transform="translate(-1123 -2796)" clip-path="url(#A)"><path d="M1164.152 2798.051v8.8a2.05 2.05 0 0 1-2.051 2.051h-8.2a2.05 2.05 0 0 1-2.051-2.051v-8.8z" fill="#c8c8d7"/><path d="M1158 2808.904h4.1a2.05 2.05 0 0 0 2.051-2.051v-8.8H1158z" fill="#aaaabf"/><path d="M1131.412 2811.553l2.899-2.899 4.833 4.833-2.899 2.899z" fill="#c8c8d7"/><path d="M1130.447 2814.571a2.05 2.05 0 0 1-1.45-3.5l4.835-4.835a2.05 2.05 0 0 1 2.9 2.9l-4.834 4.834c-.384.386-.907.602-1.451.601z" fill="#ebebff"/><path d="M1176.844 2813.491l4.833-4.833 2.899 2.899-4.833 4.833z" fill="#aaaabf"/><path d="M1185.553 2814.571c-.544.001-1.066-.215-1.45-.6l-4.834-4.834a2.05 2.05 0 0 1 2.9-2.9l4.836 4.833a2.05 2.05 0 0 1-1.45 3.5z" fill="#c8c8d7"/><path d="M1164.836 2800.1h-13.675a2.05 2.05 0 0 1-1.987-2.05 2.05 2.05 0 0 1 1.987-2.05h13.675a2.05 2.05 0 0 1 1.987 2.05 2.05 2.05 0 0 1-1.987 2.05z" fill="url(#B)"/><circle cx="1158" cy="2835.238" r="28.711" fill="#ebebff"/><path d="M1158 2866c-12.442 0-23.658-7.495-28.419-18.99s-2.13-24.725 6.667-33.523c7.734-7.948 19.148-11.118 29.873-8.296s19.101 11.198 21.923 21.923-.348 22.139-8.296 29.873A30.56 30.56 0 0 1 1158 2866zm0-57.422c-14.724 0-26.66 11.936-26.66 26.66s11.936 26.66 26.66 26.66 26.66-11.936 26.66-26.66c-.017-14.717-11.943-26.643-26.66-26.66z" fill="url(#C)"/><circle cx="1158" cy="2814.731" r="2.051" fill="#485a83"/><circle cx="1158" cy="2855.747" r="2.051" fill="#646464"/><g fill="#485a83"><circle cx="1147.746" cy="2817.478" r="2.051"/><circle cx="1168.254" cy="2852.999" r="2.051"/><circle cx="1140.24" cy="2824.985" r="2.051"/><circle cx="1175.76" cy="2845.492" r="2.051"/><circle cx="1137.492" cy="2835.239" r="2.051"/><circle cx="1178.508" cy="2835.239" r="2.051"/><circle cx="1140.24" cy="2845.492" r="2.051"/><circle cx="1175.76" cy="2824.985" r="2.051"/><circle cx="1147.746" cy="2852.999" r="2.051"/><circle cx="1168.254" cy="2817.478" r="2.051"/></g><path d="M1154.46 2835.247a2.04 2.04 0 0 1-1.023-.275l-7.119-4.11a2.05 2.05 0 1 1 2.051-3.552l7.119 4.11a2.05 2.05 0 0 1-1.027 3.827z" fill="#646464"/><circle cx="1157.999" cy="2835.238" r="6.152" fill="url(#C)"/><circle cx="1158" cy="2835.239" r="2.051" fill="#ebebff"/><path d="M1160.051 2835.238c-.002-1.132-.919-2.049-2.051-2.05v4.1c1.132-.001 2.049-.918 2.051-2.05z" fill="#c8c8d7"/></g></svg>