<svg xmlns="http://www.w3.org/2000/svg" width="40" height="40" xmlns:v="https://vecta.io/nano"><defs><clipPath id="A"><path transform="translate(1123 2796)" fill="#fff" stroke="#707070" stroke-width="1" d="M0 0h40v40H0z"/></clipPath></defs><g transform="translate(-1123 -2796)" clip-path="url(#A)"><path d="M1144.207 2815.763s-6.271-16.134-10.482-16.134c-1.269 0-2.543 6.483-3.292 11.122a8.9 8.9 0 0 1-.671 4.598s-6.762.621-6.762 2.012c0 .744 2.663 1.643 6.778 2.319 3.576.587 14.429-3.917 14.429-3.917z" fill="#7385af"/><path d="M1142.587 2811.938a57.6 57.6 0 0 1-12.092-1.177l-.066.021-.666 4.563a54.32 54.32 0 0 0 13.232 1.423c5 0 .579-2.621-.413-4.83z" fill="#485a83"/><path d="M1156.238 2815.349a7.35 7.35 0 0 1-.664-4.552c-.748-4.648-2.026-11.168-3.299-11.168-4.211 0-8.212 1.848-9.275 1.848s-5.064-1.848-9.275-1.848c1.506 0 2.269 6.233 2.539 12 .08 1.7 1 3.134.117 4.818-6.6 2.421-6.6 2.421-6.6 3.237a84.4 84.4 0 0 0 13.222 1.005c10.694 0 20-1.934 20-3.324s-6.765-2.016-6.765-2.016z" fill="#8c9dc5"/><g fill="#7385af"><path d="M1156.238 2815.345l-.665-4.552-.067-.032a58.16 58.16 0 0 1-12.506 1.179 70.81 70.81 0 0 1-6.736-.314 104.6 104.6 0 0 1 .117 4.817c1.877.189 4.1.325 6.619.325a54.32 54.32 0 0 0 13.238-1.423zm-14.918 10.505c0-1.6-2.572-2.992-6.462-2.992a13.91 13.91 0 0 0-3.113.3h-.007c-1.728.405-2.537 1.207-2.537 2.292 0 3.947 2.169 6.32 6.06 6.32 2.235 0 3.9-.65 4.915-1.951.818-1.17 1.218-2.562 1.144-3.969z"/></g><path d="M1140.173 2829.815a8.4 8.4 0 0 1-2.5.343c-3.891 0-6.06-2.373-6.06-6.32a1.89 1.89 0 0 1 .122-.682h0c-1.728.405-2.537 1.207-2.537 2.292 0 3.947 2.169 6.32 6.06 6.32 2.235 0 3.9-.65 4.915-1.951h0 0z" fill="#485a83"/><path d="M1156.801 2825.448c0-1.6-1.767-2.589-5.658-2.589-1.287-.02-2.569.162-3.8.538h-.007c-1.675.549-2.661 1.46-2.661 2.452 0 3.947 2.169 5.918 6.06 5.918a5.81 5.81 0 0 0 4.72-1.942 6.79 6.79 0 0 0 1.34-4.378z" fill="#7385af"/><g fill="#485a83"><path d="M1155.459 2829.825c-.745.23-1.521.342-2.3.333-3.891 0-6.06-1.971-6.06-5.918a1.63 1.63 0 0 1 .246-.842h0 0c-1.675.549-2.661 1.46-2.661 2.452 0 3.947 2.169 5.918 6.06 5.918a5.81 5.81 0 0 0 4.72-1.942h0z"/><path d="M1150.741 2832.371c-4.262 0-6.625-2.278-6.663-6.419a2.44 2.44 0 0 0-1.077-.195 2.44 2.44 0 0 0-1.077.195c-.038 4.141-2.4 6.419-6.663 6.419-3.975 0-6.424-2.349-6.647-6.32h-.8c-.333 0-.604-.27-.604-.603s.27-.604.604-.604h.855c.3-1.292 1.721-2.589 6.194-2.589 3.338 0 5.93 1.005 6.774 2.505a4.57 4.57 0 0 1 2.739 0c.844-1.5 3.435-2.505 6.774-2.505 4.472 0 5.891 1.3 6.194 2.589h.855c.333 0 .603.27.603.604s-.27.603-.603.603h-.8c-.234 3.971-2.681 6.32-6.658 6.32zm.4-8.909c-3.619 0-5.859 1.239-5.859 2.388 0 3.526 1.836 5.314 5.456 5.314 3.519 0 5.456-2.03 5.456-5.716.003-1.728-3.164-1.986-5.051-1.986zm-16.286 0c-1.887 0-5.054.258-5.054 1.985 0 3.686 1.938 5.716 5.456 5.716 3.621 0 5.456-1.788 5.456-5.314.005-1.151-2.237-2.387-5.856-2.387z"/></g></g></svg>