<svg xmlns="http://www.w3.org/2000/svg" width="70" height="70" xmlns:v="https://vecta.io/nano"><defs><clipPath id="A"><path transform="translate(1123 2796)" fill="#fff" stroke="#707070" stroke-width="1" d="M0 0h70v70H0z"/></clipPath></defs><g transform="translate(-1123 -2796)" clip-path="url(#A)"><path d="M1141.104 2829.795l-1.747-.873c-.409-.204-.667-.622-.667-1.079v-4.543c0-.457.258-.875.667-1.079l1.747-.873z" fill="#7385af"/><path d="M1168.861 2845.484v-8.448h-21.723v8.448l10.861 9.655z" fill="#e6af78"/><path d="M1185.656 2849.435l-14.932-3.514a2.4 2.4 0 0 1-.627-.252l-12.1 7.056-11.624-7.4a2.4 2.4 0 0 1-1.1.594l-14.929 3.516c-2.181.513-3.723 2.459-3.722 4.7v9.452c0 .64.254 1.254.707 1.707s1.067.707 1.707.707h57.927c1.333 0 2.414-1.081 2.414-2.414v-9.453c0-2.24-1.541-4.186-3.721-4.699z" fill="#b4e1fa"/><path d="M1147.138 2837.036v8.913c13.683 4.93 21.723-7.408 21.723-7.408v-1.505h-21.723z" fill="#d29b6e"/><path d="M1142.311 2809.279l1.051 23.137a7.24 7.24 0 0 0 2.889 5.464l4.99 3.743a7.24 7.24 0 0 0 4.345 1.448h4.827a7.24 7.24 0 0 0 4.349-1.449l4.99-3.743a7.24 7.24 0 0 0 2.889-5.464l1.052-23.137z" fill="#f0c087"/><path d="M1154.379 2814.107c4.827 0 12.068-1.207 13.786-4.827h-25.854l1.051 23.136a7.24 7.24 0 0 0 2.889 5.464l4.99 3.743a7.24 7.24 0 0 0 4.345 1.448H1158c-2.414 0-7.241-4.827-7.241-10.861v-14.483c.115-1.95 1.67-3.505 3.62-3.62z" fill="#e6af78"/><g fill="#a0d2f0"><path d="M1135.482 2858.168l-7.82-7.025a4.82 4.82 0 0 0-1.038 2.992v9.452c0 .64.254 1.254.707 1.707s1.067.707 1.707.707h8.446v-3.344c0-1.713-.728-3.345-2.002-4.489zm45.035 0l7.82-7.025a4.82 4.82 0 0 1 1.039 2.992v9.452c0 .64-.254 1.254-.707 1.707s-1.067.707-1.707.707h-8.447v-3.344c0-1.713.728-3.345 2.002-4.489z"/></g><g fill="#ee193a"><path d="M1161.017 2866h-6.035l.754-10.862h4.526z"/><path d="M1161.017 2852.725h-6.035v2.271a1.35 1.35 0 0 0 1.35 1.349h3.336a1.35 1.35 0 0 0 1.349-1.349v-2.271z"/></g><g fill="#a0d2f0"><path d="M1146.969 2842.797l11.034 9.927c-2.452 1.331-4.763 2.906-6.9 4.7a1.55 1.55 0 0 1-2.4-.542l-5.183-11.4 1.64-2.459c.195-.291.506-.482.853-.526s.696.066.956.3z"/><path d="M1169.031 2842.797l-11.031 9.927c2.452 1.331 4.763 2.906 6.9 4.7a1.55 1.55 0 0 0 2.4-.542l5.183-11.4-1.64-2.459c-.195-.291-.506-.484-.854-.527s-.697.067-.958.301z"/></g><path d="M1165.316 2801.284l1.131 8c5.165 1.028 5.909 9.133 6.016 11.448a2.38 2.38 0 0 0 .382 1.175l1.971 3.057s-.674-5.054 2.414-8.448c-.001.004 1.06-20.059-11.914-15.232z" fill="#785550"/><path d="M1143.467 2799.121l1.785 1.219c-8.07 5.96-6.562 16.18-6.562 16.18 2.414 2.414 2.414 8.448 2.414 8.448l2.411-2.414s-.931-6.972 3.62-9.655c4.224-2.489 7.92-1.207 11.691-1.207 10.107 0 12.936-3.809 12.445-8.448-.254-2.4-3.924-7.4-13.275-7.241-3.771.065-10.858 1.208-14.529 3.118z" fill="#694b4b"/><path d="M1142.763 2810.636c-.638-3.63.264-7.362 2.489-10.3-8.071 5.959-6.562 16.179-6.562 16.179 2.414 2.414 2.414 8.448 2.414 8.448l2.411-2.409s-.931-6.972 3.62-9.655c4.224-2.489 7.92-1.207 11.691-1.207a29.65 29.65 0 0 0 4.352-.3c-7.781.263-12.369-5.633-20.415-.756z" fill="#5a4146"/><g fill="#485a83"><path d="M1142.914 2831.002h-1.81c-.32 0-.627-.127-.853-.354a1.21 1.21 0 0 1-.354-.853v-8.448c0-.32.127-.627.354-.853a1.21 1.21 0 0 1 .853-.354h1.81a.6.6 0 0 1 .6.6v9.658a.6.6 0 0 1-.6.604zm19.913 6.939v-1.81c8.168 0 9.956-4.574 9.956-6.336h1.81c.001 2.264-2.113 8.146-11.766 8.146z"/><path d="M1162.827 2838.243h-1.207c-.32 0-.627-.127-.853-.354s-.354-.533-.354-.853h0c0-.32.127-.627.354-.853s.533-.354.853-.354h1.207c.32 0 .627.127.853.354s.354.533.354.853h0c0 .32-.127.627-.354.853s-.533.354-.853.354z"/></g><path d="M1174.896 2829.795l1.747-.873c.409-.204.667-.622.667-1.079v-4.543c0-.457-.258-.875-.667-1.079l-1.747-.873z" fill="#7385af"/><path d="M1173.085 2831.002h1.811c.32 0 .627-.127.853-.354s.354-.533.354-.853v-8.448c0-.667-.54-1.207-1.207-1.207h-1.81a.6.6 0 0 0-.6.6v9.658a.6.6 0 0 0 .599.604z" fill="#485a83"/><path d="M1173.689 2863.586h-8.448c-.32 0-.627.127-.853.354s-.354.533-.354.853V2866h10.862v-1.207c0-.32-.127-.627-.354-.853s-.533-.354-.853-.354z" fill="#a0d2f0"/></g></svg>