<svg xmlns="http://www.w3.org/2000/svg" xmlns:xlink="http://www.w3.org/1999/xlink" width="40" height="40" xmlns:v="https://vecta.io/nano"><defs><clipPath id="A"><path transform="translate(1123 2796)" fill="#fff" stroke="#707070" stroke-width="1" d="M0 0h40v40H0z"/></clipPath><linearGradient id="B" x1=".514" y1=".999" x2=".508" y2=".8"><stop offset="0" stop-color="#ffb92d"/><stop offset="1" stop-color="#f59500"/></linearGradient><linearGradient id="C" x1=".544" y1=".884" x2=".527" y2=".725" xlink:href="#B"/><linearGradient id="D" x1=".497" y1="1.192" x2=".497" y2=".334"><stop offset="0" stop-color="#ff4c54"/><stop offset="1" stop-color="#be3f45"/></linearGradient><linearGradient id="E" y1=".009" y2="-.849" xlink:href="#D"/><linearGradient id="F" x1=".595" y1=".09" x2=".113" y2=".09"><stop offset="0" stop-color="#be3f45" stop-opacity="0"/><stop offset="1" stop-color="#be3f45"/></linearGradient><linearGradient id="G" x1=".328" y1=".312" x2=".748" y2=".118"><stop offset="0" stop-color="#f9a72c"/><stop offset="1" stop-color="#fd8720"/></linearGradient><linearGradient id="H" x1=".484" y1="-2.152" x2=".467" y2="-2.526" xlink:href="#F"/><linearGradient id="I" x1=".488" y1="14.281" x2=".488" y2="-6.552"><stop offset="0" stop-color="#fff465"/><stop offset="1" stop-color="#ffe600"/></linearGradient><linearGradient id="J" x1=".497" y1=".68" x2=".497" y2="-.33" xlink:href="#I"/><linearGradient id="K" x1=".486" y1="-3.309" x2=".486" y2="-23.828" xlink:href="#I"/><linearGradient id="L" x1=".754" y1="-1.086" x2="-.167" y2="-.458" xlink:href="#F"/><linearGradient id="M" x1=".478" y1="-1.436" x2=".478" y2="-2.157" xlink:href="#D"/><linearGradient id="N" x1=".469" y1="-3.071" x2=".469" y2="-2.351" xlink:href="#D"/><linearGradient id="O" x1="-4.368" y1="7.43" x2="-3.372" y2="3.032"><stop offset="0" stop-color="#a7f3ce"/><stop offset="1" stop-color="#61db99"/></linearGradient><linearGradient id="P" x1="-4.375" x2="-3.379" y2="3.031" xlink:href="#O"/><linearGradient id="Q" x1="-4.762" y1="5.504" x2="-3.766" y2="1.105" xlink:href="#O"/><linearGradient id="R" x1="-4.769" y1="5.504" x2="-3.773" y2="1.105" xlink:href="#O"/></defs><g transform="translate(-1123 -2796)" clip-path="url(#A)"><path d="M1158.256 2832.676h-30.513c-.781 0-1.53-.31-2.082-.863s-.863-1.301-.863-2.082v-25.407c0-.781.31-1.53.863-2.082s1.301-.863 2.082-.863h30.513c.781 0 1.53.31 2.082.863s.863 1.301.863 2.082v25.407c0 .781-.31 1.53-.863 2.082s-1.301.863-2.082.863z" fill="url(#B)"/><path d="M1157.577 2831.981h-29.152c-.746 0-1.462-.296-1.989-.824s-.824-1.243-.824-1.989v-24.277c.002-1.552 1.261-2.81 2.813-2.81h29.152c.746 0 1.462.296 1.989.824s.824 1.243.824 1.989v24.271c.001.747-.295 1.463-.823 1.991s-1.244.825-1.99.825z" fill="url(#C)"/><path d="M1159.229 2809.6l-7.34-12.714a1.77 1.77 0 0 0-2.421-.648l-23.138 13.362z" fill="#71c91a"/><path d="M1124.799 2819.829h36.4v-9.642a2.2 2.2 0 0 0-2.2-2.2h-32a2.2 2.2 0 0 0-2.2 2.2z" fill="url(#D)"/><path d="M1124.799 2816.204v13.528c0 .781.31 1.53.863 2.082s1.301.863 2.082.863h30.512c.781 0 1.53-.31 2.082-.863s.863-1.301.863-2.082v-13.528a1.82 1.82 0 0 0-1.819-1.819h-32.765a1.82 1.82 0 0 0-1.818 1.819z" fill="url(#E)"/><path d="M1155.71 2809.225v23.452h2.547c.781 0 1.53-.31 2.082-.863s.863-1.301.863-2.082v-15.015z" fill="url(#F)"/><path d="M1153.226 2835.974l-25.554-2.964a3.25 3.25 0 0 1-2.874-3.227v-25.679c0 .552.414 1.017.962 1.08l28.215 3.277a3.25 3.25 0 0 1 2.875 3.227v21.063a3.25 3.25 0 0 1-3.624 3.223z" fill="url(#G)"/><path d="M1153.226 2830.848l-25.554-2.968a3.25 3.25 0 0 1-2.874-3.227v5.129a3.25 3.25 0 0 0 2.874 3.227l25.554 2.968a3.25 3.25 0 0 0 3.624-3.226v-5.13a3.25 3.25 0 0 1-3.624 3.227z" fill="url(#H)"/><path d="M1127.09 2808.107c-.022.001-.043.001-.065 0l-1.169-.129a.59.59 0 0 1-.518-.648.59.59 0 0 1 .646-.521l1.169.129a.59.59 0 0 1 .528.617.59.59 0 0 1-.592.556z" fill="url(#I)"/><path d="M1151.119 2834.04a.61.61 0 0 1-.075 0l-2.273-.289a.59.59 0 0 1-.509-.658.59.59 0 0 1 .658-.509l2.273.289a.59.59 0 0 1 .519.621.59.59 0 0 1-.593.551zm2.237-.291a.59.59 0 0 1-.574-.459.59.59 0 0 1 .323-.661 2.32 2.32 0 0 0 1.231-1.28.59.59 0 0 1 .75-.362.59.59 0 0 1 .361.75c-.325.874-.988 1.579-1.841 1.956-.078.037-.164.056-.25.056zm-6.782-.287a.61.61 0 0 1-.075 0l-2.273-.289a.59.59 0 0 1-.509-.658.59.59 0 0 1 .658-.509l2.273.289a.59.59 0 0 1 .519.621.59.59 0 0 1-.593.551zm-4.545-.578a.61.61 0 0 1-.075 0l-2.273-.289a.59.59 0 0 1-.509-.658.59.59 0 0 1 .658-.509l2.273.289a.59.59 0 0 1 .519.621.59.59 0 0 1-.593.551zm-4.546-.579a.61.61 0 0 1-.075 0l-2.273-.289a.59.59 0 0 1-.509-.658.59.59 0 0 1 .658-.509l2.272.285a.59.59 0 0 1 .519.621.59.59 0 0 1-.593.551zm-4.545-.578c-.025.002-.05.002-.075 0l-2.273-.289a.59.59 0 0 1-.509-.658.59.59 0 0 1 .658-.509l2.273.289a.59.59 0 0 1 .519.621.59.59 0 0 1-.593.551zm22.086-1.872a.59.59 0 0 1-.588-.588v-2.291a.59.59 0 0 1 .588-.588.59.59 0 0 1 .588.588v2.291a.59.59 0 0 1-.588.588zm0-4.582a.59.59 0 0 1-.588-.588v-2.291a.59.59 0 0 1 .588-.588.59.59 0 0 1 .588.588v2.291a.59.59 0 0 1-.588.588zm0-4.582a.59.59 0 0 1-.588-.588v-2.291a.59.59 0 0 1 .588-.588.59.59 0 0 1 .588.588v2.293a.59.59 0 0 1-.588.586zm0-4.582a.59.59 0 0 1-.588-.588v-2.291a.59.59 0 0 1 .588-.588.59.59 0 0 1 .588.588v2.291a.59.59 0 0 1-.588.584zm-.823-4.347c-.149-.001-.292-.058-.4-.161-.47-.427-1.067-.688-1.7-.741h-.016a.59.59 0 0 1-.522-.648.59.59 0 0 1 .648-.522h.01a4.06 4.06 0 0 1 2.393 1.057.59.59 0 0 1-.4 1.015zm-4.338-1.151a.61.61 0 0 1-.065 0l-2.277-.25a.59.59 0 0 1-.412-.933.59.59 0 0 1 .54-.236l2.277.25a.59.59 0 0 1 .528.617.59.59 0 0 1-.592.556zm-4.554-.5a.61.61 0 0 1-.065 0l-2.277-.25a.59.59 0 0 1-.412-.933.59.59 0 0 1 .54-.236l2.277.25a.59.59 0 0 1 .528.617.59.59 0 0 1-.592.556zm-4.553-.506a.61.61 0 0 1-.065 0l-2.277-.25a.59.59 0 0 1-.518-.648.59.59 0 0 1 .646-.521l2.277.25a.59.59 0 0 1 .5.613.59.59 0 0 1-.563.556zm-4.555-.5a.61.61 0 0 1-.065 0l-2.277-.25a.59.59 0 0 1-.518-.648.59.59 0 0 1 .646-.521l2.277.25a.59.59 0 0 1 .528.617.59.59 0 0 1-.592.556zm-4.555-.5a.61.61 0 0 1-.065 0l-2.277-.25a.59.59 0 0 1-.412-.933.59.59 0 0 1 .54-.236l2.277.25a.59.59 0 0 1 .528.617.59.59 0 0 1-.592.556z" fill="url(#J)"/><path d="M1128.386 2831.144c-.025.002-.05.002-.075 0l-1.167-.148a.59.59 0 0 1-.394-.94.59.59 0 0 1 .543-.227l1.167.148a.59.59 0 0 1 .487.617.59.59 0 0 1-.561.55z" fill="url(#K)"/><path d="M1149.998 2800.38l-3.765 2.049a1.01 1.01 0 0 1-1.371-.4h0a1.01 1.01 0 0 1 .4-1.371l3.765-2.049a1.01 1.01 0 0 1 1.371.4h0a1.01 1.01 0 0 1-.4 1.371z" fill="#63ad19"/><path d="M1156.85 2824.424l-3.736-3.736c-.717-.776-1.802-1.098-2.827-.838s-1.825 1.06-2.085 2.085.061 2.109.838 2.827l7.81 7.81v-8.148z" fill="url(#L)"/><circle cx="1150.989" cy="2822.637" r="2.884" fill="url(#M)"/><circle cx="1150.989" cy="2822.637" r="1.99" fill="url(#N)"/><circle cx="1150.233" cy="2821.881" r=".412" fill="url(#O)"/><circle cx="1151.746" cy="2821.881" r=".412" fill="url(#P)"/><circle cx="1150.233" cy="2823.394" r=".412" fill="url(#Q)"/><circle cx="1151.746" cy="2823.394" r=".412" fill="url(#R)"/></g></svg>